<?xml version="1.0" encoding="iso-8859-1"?>
<!-- Generator: Adobe Illustrator 19.1.1, SVG Export Plug-In . SVG Version: 6.00 Build 0)  -->
<svg xmlns="http://www.w3.org/2000/svg" xmlns:xlink="http://www.w3.org/1999/xlink" version="1.1" id="Layer_1" x="0px" y="0px" viewBox="0 0 48 48" style="enable-background:new 0 0 48 48;" xml:space="preserve">
<path style="fill:#CFD8DC;" d="M37.992,45H10.008C7.254,45,5,42.746,5,39.992V13.008C5,10.254,7.254,8,10.008,8h27.984  C40.746,8,43,10.254,43,13.008v26.984C43,42.746,40.746,45,37.992,45z"/>
<path style="fill:#CFD8DC;" d="M29.992,17H17.008C15.354,17,14,15.646,14,13.992V6.008C14,4.354,15.354,3,17.008,3h12.984  C31.646,3,33,4.354,33,6.008v7.984C33,15.646,31.646,17,29.992,17z"/>
<circle style="fill:#546E7A;" cx="24" cy="27" r="12"/>
<circle style="fill:#FFFFFF;" cx="24" cy="27" r="10"/>
<path style="fill:#FF3D00;" d="M34,27H14c0-5.523,4.477-10,10-10S34,21.477,34,27z"/>
<path style="fill:#546E7A;" d="M14,27c0,0.338,0.019,0.67,0.046,1h19.908C33.981,27.67,34,27.338,34,27s-0.019-0.67-0.046-1H14.046  C14.019,26.33,14,26.662,14,27z"/>
<circle style="fill:#546E7A;" cx="24" cy="27" r="4"/>
<circle style="fill:#FFFFFF;" cx="24" cy="27" r="2"/>
<path style="fill:#546E7A;" d="M24,42L24,42c-0.55,0-1-0.45-1-1v-3c0-0.55,0.45-1,1-1h0c0.55,0,1,0.45,1,1v3  C25,41.55,24.55,42,24,42z"/>
<circle style="fill:#546E7A;" cx="11.5" cy="14.5" r="3.5"/>
<circle style="fill:#76FF03;" cx="11.5" cy="14.5" r="1.5"/>
<path style="fill:#546E7A;" d="M37,38h3c0.55,0,1-0.45,1-1l0,0c0-0.55-0.45-1-1-1h-3c-0.55,0-1,0.45-1,1l0,0  C36,37.55,36.45,38,37,38z"/>
<path style="fill:#546E7A;" d="M37,41h3c0.55,0,1-0.45,1-1l0,0c0-0.55-0.45-1-1-1h-3c-0.55,0-1,0.45-1,1l0,0  C36,40.55,36.45,41,37,41z"/>
</svg>
